<svg xmlns="http://www.w3.org/2000/svg"
     width="20" height="20"
     viewBox="0 0 20 20"
     shape-rendering="crispEdges">
  <rect x="19" y="2" width="1" height="1" fill="CurrentColor"/>
  <rect x="18" y="3" width="2" height="1" fill="CurrentColor"/>
  <rect x="17" y="4" width="3" height="1" fill="CurrentColor"/>
  <rect x="16" y="5" width="3" height="1" fill="CurrentColor"/>
  <rect x="15" y="6" width="3" height="1" fill="CurrentColor"/>
  <rect x="14" y="7" width="3" height="1" fill="CurrentColor"/>
  <rect x="0" y="8" width="1" height="1" fill="CurrentColor"/>
  <rect x="13" y="8" width="3" height="1" fill="CurrentColor"/>
  <rect x="0" y="9" width="2" height="1" fill="CurrentColor"/>
  <rect x="12" y="9" width="3" height="1" fill="CurrentColor"/>
  <rect x="0" y="10" width="3" height="1" fill="CurrentColor"/>
  <rect x="11" y="10" width="3" height="1" fill="CurrentColor"/>
  <rect x="1" y="11" width="3" height="1" fill="CurrentColor"/>
  <rect x="10" y="11" width="3" height="1" fill="CurrentColor"/>
  <rect x="2" y="12" width="3" height="1" fill="CurrentColor"/>
  <rect x="9" y="12" width="3" height="1" fill="CurrentColor"/>
  <rect x="3" y="13" width="3" height="1" fill="CurrentColor"/>
  <rect x="8" y="13" width="3" height="1" fill="CurrentColor"/>
  <rect x="4" y="14" width="6" height="1" fill="CurrentColor"/>
  <rect x="5" y="15" width="4" height="1" fill="CurrentColor"/>
  <rect x="6" y="16" width="2" height="1" fill="CurrentColor"/>
</svg>