<svg xmlns="http://www.w3.org/2000/svg"
     width="20" height="20"
     viewBox="0 0 20 20"
     shape-rendering="crispEdges">
  <rect x="2" y="2" width="2" height="1" fill="currentColor"/>
  <rect x="16" y="2" width="2" height="1" fill="currentColor"/>
  <rect x="2" y="3" width="3" height="1" fill="currentColor"/>
  <rect x="15" y="3" width="3" height="1" fill="currentColor"/>
  <rect x="3" y="4" width="3" height="1" fill="currentColor"/>
  <rect x="14" y="4" width="3" height="1" fill="currentColor"/>
  <rect x="4" y="5" width="3" height="1" fill="currentColor"/>
  <rect x="13" y="5" width="3" height="1" fill="currentColor"/>
  <rect x="5" y="6" width="3" height="1" fill="currentColor"/>
  <rect x="12" y="6" width="3" height="1" fill="currentColor"/>
  <rect x="6" y="7" width="3" height="1" fill="currentColor"/>
  <rect x="11" y="7" width="3" height="1" fill="currentColor"/>
  <rect x="7" y="8" width="6" height="1" fill="currentColor"/>
  <rect x="8" y="9" width="4" height="2" fill="currentColor"/>
  <rect x="7" y="11" width="6" height="1" fill="currentColor"/>
  <rect x="6" y="12" width="3" height="1" fill="currentColor"/>
  <rect x="11" y="12" width="3" height="1" fill="currentColor"/>
  <rect x="5" y="13" width="3" height="1" fill="currentColor"/>
  <rect x="12" y="13" width="3" height="1" fill="currentColor"/>
  <rect x="4" y="14" width="3" height="1" fill="currentColor"/>
  <rect x="13" y="14" width="3" height="1" fill="currentColor"/>
  <rect x="3" y="15" width="3" height="1" fill="currentColor"/>
  <rect x="14" y="15" width="3" height="1" fill="currentColor"/>
  <rect x="2" y="16" width="3" height="1" fill="currentColor"/>
  <rect x="15" y="16" width="3" height="1" fill="currentColor"/>
  <rect x="2" y="17" width="2" height="1" fill="currentColor"/>
  <rect x="16" y="17" width="2" height="1" fill="currentColor"/>
</svg>