<svg xmlns="http://www.w3.org/2000/svg"
     width="20" height="20"
     viewBox="0 0 20 20"
     shape-rendering="crispEdges">
  <rect x="4" y="3" width="4" height="1" fill="#000000"/>
  <rect x="12" y="3" width="4" height="1" fill="#000000"/>
  <rect x="3" y="4" width="1" height="1" fill="#000000"/>
  <rect x="8" y="4" width="1" height="1" fill="#000000"/>
  <rect x="11" y="4" width="1" height="1" fill="#000000"/>
  <rect x="16" y="4" width="1" height="1" fill="#000000"/>
  <rect x="2" y="5" width="2" height="1" fill="#000000"/>
  <rect x="9" y="5" width="2" height="1" fill="#000000"/>
  <rect x="16" y="5" width="2" height="1" fill="#000000"/>
  <rect x="2" y="6" width="2" height="1" fill="#000000"/>
  <rect x="5" y="6" width="3" height="1" fill="#000000"/>
  <rect x="9" y="6" width="2" height="1" fill="#000000"/>
  <rect x="12" y="6" width="3" height="1" fill="#000000"/>
  <rect x="16" y="6" width="2" height="1" fill="#000000"/>
  <rect x="2" y="7" width="2" height="1" fill="#000000"/>
  <rect x="9" y="7" width="2" height="1" fill="#000000"/>
  <rect x="16" y="7" width="2" height="1" fill="#000000"/>
  <rect x="2" y="8" width="2" height="1" fill="#000000"/>
  <rect x="5" y="8" width="3" height="1" fill="#000000"/>
  <rect x="9" y="8" width="2" height="1" fill="#000000"/>
  <rect x="12" y="8" width="3" height="1" fill="#000000"/>
  <rect x="16" y="8" width="2" height="1" fill="#000000"/>
  <rect x="2" y="9" width="2" height="1" fill="#000000"/>
  <rect x="9" y="9" width="2" height="1" fill="#000000"/>
  <rect x="16" y="9" width="2" height="1" fill="#000000"/>
  <rect x="2" y="10" width="2" height="1" fill="#000000"/>
  <rect x="5" y="10" width="3" height="1" fill="#000000"/>
  <rect x="9" y="10" width="2" height="1" fill="#000000"/>
  <rect x="12" y="10" width="3" height="1" fill="#000000"/>
  <rect x="16" y="10" width="2" height="1" fill="#000000"/>
  <rect x="2" y="11" width="2" height="3" fill="#000000"/>
  <rect x="9" y="11" width="2" height="3" fill="#000000"/>
  <rect x="16" y="11" width="2" height="3" fill="#000000"/>
  <rect x="2" y="14" width="16" height="1" fill="#000000"/>
  <rect x="3" y="15" width="14" height="1" fill="#000000"/>
  <rect x="9" y="16" width="2" height="1" fill="#000000"/>
</svg>